<?xml version="1.0" encoding="UTF-8" standalone="no"?>
<svg
   xmlns:dc="http://purl.org/dc/elements/1.1/"
   xmlns:cc="http://creativecommons.org/ns#"
   xmlns:rdf="http://www.w3.org/1999/02/22-rdf-syntax-ns#"
   xmlns:svg="http://www.w3.org/2000/svg"
   xmlns="http://www.w3.org/2000/svg"
   xmlns:sodipodi="http://sodipodi.sourceforge.net/DTD/sodipodi-0.dtd"
   xmlns:inkscape="http://www.inkscape.org/namespaces/inkscape"
   version="1.1"
   id="svg2"
   xml:space="preserve"
   width="488.45334"
   height="273.09332"
   viewBox="0 0 488.45334 273.09332"
   sodipodi:docname="file.eps"><metadata
     id="metadata8"><rdf:RDF><cc:Work
         rdf:about=""><dc:format>image/svg+xml</dc:format><dc:type
           rdf:resource="http://purl.org/dc/dcmitype/StillImage" /></cc:Work></rdf:RDF></metadata><defs
     id="defs6"><clipPath
       clipPathUnits="userSpaceOnUse"
       id="clipPath38"><path
         d="m 2911.04,1365.09 c -41.46,0 -75.17,-33.73 -75.17,-75.18 0,-41.45 33.71,-75.18 75.17,-75.18 41.46,0 75.18,33.73 75.18,75.18 0,41.45 -33.72,75.18 -75.18,75.18 z m 0,-161.56 c -47.63,0 -86.38,38.75 -86.38,86.38 0,47.63 38.75,86.38 86.38,86.38 47.63,0 86.38,-38.75 86.38,-86.38 0,-47.63 -38.75,-86.38 -86.38,-86.38 z"
         id="path36" /></clipPath><linearGradient
       x1="0"
       y1="0"
       x2="1"
       y2="0"
       gradientUnits="userSpaceOnUse"
       gradientTransform="matrix(-4.72e-5,-1080.23,-1080.23,4.72e-5,2911.04,2067.07)"
       spreadMethod="pad"
       id="linearGradient46"><stop
         style="stop-opacity:1;stop-color:#ed1c24"
         offset="0"
         id="stop40" /><stop
         style="stop-opacity:1;stop-color:#ed1c24"
         offset="0.34460181"
         id="stop42" /><stop
         style="stop-opacity:1;stop-color:#861115"
         offset="1"
         id="stop44" /></linearGradient><clipPath
       clipPathUnits="userSpaceOnUse"
       id="clipPath56"><path
         d="m 2910.32,1301.43 c -6.97,0 -12.62,-5.67 -12.62,-12.62 0,-6.95 5.65,-12.62 12.62,-12.62 6.95,0 12.61,5.67 12.61,12.62 0,6.95 -5.66,12.62 -12.61,12.62 z m 0,-30.82 c -10.04,0 -18.21,8.16 -18.21,18.2 0,10.04 8.17,18.2 18.21,18.2 10.04,0 18.2,-8.16 18.2,-18.2 0,-10.04 -8.16,-18.2 -18.2,-18.2 z"
         id="path54" /></clipPath><linearGradient
       x1="0"
       y1="0"
       x2="1"
       y2="0"
       gradientUnits="userSpaceOnUse"
       gradientTransform="matrix(-2.39e-5,-547.124,-547.124,2.39e-5,2910.32,1682.43)"
       spreadMethod="pad"
       id="linearGradient64"><stop
         style="stop-opacity:1;stop-color:#ed1c24"
         offset="0"
         id="stop58" /><stop
         style="stop-opacity:1;stop-color:#ed1c24"
         offset="0.34460181"
         id="stop60" /><stop
         style="stop-opacity:1;stop-color:#861115"
         offset="1"
         id="stop62" /></linearGradient><clipPath
       clipPathUnits="userSpaceOnUse"
       id="clipPath74"><path
         d="m 2862.61,1302.31 25.31,-21.95 -3.73,-33.31 28.72,17.31 30.5,-13.85 -7.58,32.63 22.6,24.75 -33.38,2.89 -16.56,29.14 -13.07,-30.87 z m 9.38,-74.29 5.41,48.23 -36.66,31.79 47.54,9.75 18.9,44.69 23.97,-42.19 48.34,-4.18 -32.72,-35.82 10.98,-47.27 -44.2,20.04 z"
         id="path72" /></clipPath><radialGradient
       fx="0"
       fy="0"
       cx="0"
       cy="0"
       r="1"
       gradientUnits="userSpaceOnUse"
       gradientTransform="matrix(94.6267,0,0,-94.6267,2910.11,1295.25)"
       spreadMethod="pad"
       id="radialGradient86"><stop
         style="stop-opacity:1;stop-color:#7b7979"
         offset="0"
         id="stop76" /><stop
         style="stop-opacity:1;stop-color:#7b7979"
         offset="0.09865984"
         id="stop78" /><stop
         style="stop-opacity:1;stop-color:#231f20"
         offset="0.286301"
         id="stop80" /><stop
         style="stop-opacity:1;stop-color:#231f20"
         offset="0.37427757"
         id="stop82" /><stop
         style="stop-opacity:1;stop-color:#656263"
         offset="1"
         id="stop84" /></radialGradient><clipPath
       clipPathUnits="userSpaceOnUse"
       id="clipPath96"><path
         d="m 819.488,1034.48 c -128.008,29.14 -223.566,143.54 -223.566,280.34 0,158.85 128.808,287.61 287.695,287.61 113.899,0 212.293,-66.15 258.923,-162.1 -48.67,77.27 -134.69,128.65 -232.79,128.65 -151.855,0 -274.961,-123.06 -274.961,-274.87 0,-120.18 77.199,-222.29 184.699,-259.63"
         id="path94" /></clipPath><linearGradient
       x1="0"
       y1="0"
       x2="1"
       y2="0"
       gradientUnits="userSpaceOnUse"
       gradientTransform="matrix(-35.723,-1428.91,-1428.91,35.723,891.973,2288.93)"
       spreadMethod="pad"
       id="linearGradient104"><stop
         style="stop-opacity:1;stop-color:#ed1c24"
         offset="0"
         id="stop98" /><stop
         style="stop-opacity:1;stop-color:#ed1c24"
         offset="0.34460181"
         id="stop100" /><stop
         style="stop-opacity:1;stop-color:#861115"
         offset="1"
         id="stop102" /></linearGradient><clipPath
       clipPathUnits="userSpaceOnUse"
       id="clipPath116"><path
         d="m 239.918,1454.21 c 0,0 -66.289,-323.88 336.941,-306.88 0,0 -430.761,-121.45 -403.23,306.88 z"
         id="path114" /></clipPath><linearGradient
       x1="0"
       y1="0"
       x2="1"
       y2="0"
       gradientUnits="userSpaceOnUse"
       gradientTransform="matrix(-35.7242,-1428.96,-1428.96,35.7242,400.02,2301.26)"
       spreadMethod="pad"
       id="linearGradient124"><stop
         style="stop-opacity:1;stop-color:#ed1c24"
         offset="0"
         id="stop118" /><stop
         style="stop-opacity:1;stop-color:#ed1c24"
         offset="0.34460181"
         id="stop120" /><stop
         style="stop-opacity:1;stop-color:#861115"
         offset="1"
         id="stop122" /></linearGradient><clipPath
       clipPathUnits="userSpaceOnUse"
       id="clipPath134"><path
         d="M 0,0 H 3663 V 2048 H 0 Z"
         id="path132" /></clipPath><clipPath
       clipPathUnits="userSpaceOnUse"
       id="clipPath140"><path
         d="m 3315.19,1620.13 c 0,0 -175.35,99.11 -903.46,83.86 0,0 -228.71,217.28 -659.46,270.66 0,0 -412.36,33.8 -960.633,-148.68 0,0 -168.184,-61.33 -430.762,-118.17 0,0 -129.609,83.86 -144.855,137.23 0,0 136.281,-49.55 449.816,26.69 0,0 728.554,266.14 1269.404,144.85 0,0 320.2,-64.8 522.24,-221.09 0,0 575.61,11.43 857.71,-175.35 z"
         id="path138" /></clipPath><linearGradient
       x1="0"
       y1="0"
       x2="1"
       y2="0"
       gradientUnits="userSpaceOnUse"
       gradientTransform="matrix(-35.7235,-1428.93,-1428.93,35.7235,1778.96,2266.77)"
       spreadMethod="pad"
       id="linearGradient148"><stop
         style="stop-opacity:1;stop-color:#ed1c24"
         offset="0"
         id="stop142" /><stop
         style="stop-opacity:1;stop-color:#ed1c24"
         offset="0.34460181"
         id="stop144" /><stop
         style="stop-opacity:1;stop-color:#861115"
         offset="1"
         id="stop146" /></linearGradient><clipPath
       clipPathUnits="userSpaceOnUse"
       id="clipPath158"><path
         d="m 3433.35,1454.9 c 0,0 -30.48,72.43 -221.09,80.05 0,0 -5.57,22.19 -61.01,76.25 0,0 190.62,41.93 282.1,-156.3 z"
         id="path156" /></clipPath><linearGradient
       x1="0"
       y1="0"
       x2="1"
       y2="0"
       gradientUnits="userSpaceOnUse"
       gradientTransform="matrix(-35.724,-1428.95,-1428.95,35.724,3309.69,2228.52)"
       spreadMethod="pad"
       id="linearGradient164"><stop
         style="stop-opacity:1;stop-color:#f68712"
         offset="0"
         id="stop160" /><stop
         style="stop-opacity:1;stop-color:#ef2e32"
         offset="1"
         id="stop162" /></linearGradient><clipPath
       clipPathUnits="userSpaceOnUse"
       id="clipPath174"><path
         d="m 1653.15,1684.93 h 655.66 c 0,0 -282.08,240.16 -543.2,228.72 0,0 287.8,-57.18 364.05,-175.35 z"
         id="path172" /></clipPath><linearGradient
       x1="0"
       y1="0"
       x2="1"
       y2="0"
       gradientUnits="userSpaceOnUse"
       gradientTransform="matrix(-35.7239,-1428.94,-1428.94,35.7239,1995.4,2261.37)"
       spreadMethod="pad"
       id="linearGradient182"><stop
         style="stop-opacity:1;stop-color:#ed1c24"
         offset="0"
         id="stop176" /><stop
         style="stop-opacity:1;stop-color:#ed1c24"
         offset="0.34460181"
         id="stop178" /><stop
         style="stop-opacity:1;stop-color:#861115"
         offset="1"
         id="stop180" /></linearGradient><clipPath
       clipPathUnits="userSpaceOnUse"
       id="clipPath192"><path
         d="m 1569.28,1684.93 v 198.22 c 0,0 -373.57,15.24 -613.729,-87.67 0,0 182.979,141.05 644.229,137.23 z"
         id="path190" /></clipPath><linearGradient
       x1="0"
       y1="0"
       x2="1"
       y2="0"
       gradientUnits="userSpaceOnUse"
       gradientTransform="matrix(-35.723,-1428.91,-1428.91,35.723,1288.05,2279.04)"
       spreadMethod="pad"
       id="linearGradient200"><stop
         style="stop-opacity:1;stop-color:#ed1c24"
         offset="0"
         id="stop194" /><stop
         style="stop-opacity:1;stop-color:#ed1c24"
         offset="0.34460181"
         id="stop196" /><stop
         style="stop-opacity:1;stop-color:#861115"
         offset="1"
         id="stop198" /></linearGradient><clipPath
       clipPathUnits="userSpaceOnUse"
       id="clipPath210"><path
         d="m 3433.35,1417.91 c 0,0 -213.02,-203.28 57.62,-286.48 0,0 -175.34,-0.67 -224.9,0 0,0 -8.07,267.42 167.28,286.48 z"
         id="path208" /></clipPath><linearGradient
       x1="0"
       y1="0"
       x2="1"
       y2="0"
       gradientUnits="userSpaceOnUse"
       gradientTransform="matrix(-35.7238,-1428.94,-1428.94,35.7238,3405.72,2226.11)"
       spreadMethod="pad"
       id="linearGradient218"><stop
         style="stop-opacity:1;stop-color:#ed1c24"
         offset="0"
         id="stop212" /><stop
         style="stop-opacity:1;stop-color:#ed1c24"
         offset="0.34460181"
         id="stop214" /><stop
         style="stop-opacity:1;stop-color:#861115"
         offset="1"
         id="stop216" /></linearGradient><clipPath
       clipPathUnits="userSpaceOnUse"
       id="clipPath228"><path
         d="m 2819.28,1034.48 c -64.72,14.74 -121.12,51.29 -161.08,101.49 -127.94,-54.1 -265.94,-75.13 -403.34,-75.13 -480.69,0 -953.06,257.62 -953.06,257.62 228.62,-83.53 427.6,-112.32 593.41,-112.3 367.7,0.02 571.91,141.61 571.91,141.61 -207,-66.12 -387.72,-92.19 -544.14,-92.19 -584.68,0 -828.91,364.55 -828.91,364.55 184.56,-82.37 349.29,-108.81 502.03,-108.81 136.97,0 264.3,21.27 387.59,42.53 123.3,21.27 242.55,42.53 363.42,42.53 110.94,0 223.25,-17.92 341.24,-70.2 55.97,51.64 125.62,76.22 194.58,76.22 104.95,0 208.3,-56.93 259.4,-162.07 -48.66,77.27 -134.7,128.65 -232.78,128.65 -202.82,0 -334.83,-211.73 -248.27,-393.02 31.45,-65.89 88.34,-117.29 158,-141.48"
         id="path226" /></clipPath><linearGradient
       x1="0"
       y1="0"
       x2="1"
       y2="0"
       gradientUnits="userSpaceOnUse"
       gradientTransform="matrix(-35.7232,-1428.92,-1428.92,35.7232,2136.38,2257.83)"
       spreadMethod="pad"
       id="linearGradient236"><stop
         style="stop-opacity:1;stop-color:#ed1c24"
         offset="0"
         id="stop230" /><stop
         style="stop-opacity:1;stop-color:#ed1c24"
         offset="0.34460181"
         id="stop232" /><stop
         style="stop-opacity:1;stop-color:#861115"
         offset="1"
         id="stop234" /></linearGradient><clipPath
       clipPathUnits="userSpaceOnUse"
       id="clipPath246"><path
         d="m 2911.04,1049.69 c -132.45,0 -240.21,107.76 -240.21,240.22 0,132.46 107.76,240.23 240.21,240.23 132.47,0 240.21,-107.77 240.21,-240.23 0,-132.46 -107.74,-240.22 -240.21,-240.22 m 0,404.63 c -90.66,0 -164.4,-73.75 -164.4,-164.41 0,-90.65 73.74,-164.4 164.4,-164.4 90.65,0 164.42,73.75 164.42,164.4 0,90.66 -73.77,164.41 -164.42,164.41 m 30.79,37.87 c 25.53,-5.08 58.11,-19.24 87.93,-43.24 30.01,-24.17 66.88,-66.41 72.69,-130.49 l 18.48,0.6 c -11.12,94.73 -88.57,167.4 -179.1,173.13"
         id="path244" /></clipPath><radialGradient
       fx="0"
       fy="0"
       cx="0"
       cy="0"
       r="1"
       gradientUnits="userSpaceOnUse"
       gradientTransform="matrix(392.248,0,0,-392.248,2911.04,1289.91)"
       spreadMethod="pad"
       id="radialGradient258"><stop
         style="stop-opacity:1;stop-color:#a19fa0"
         offset="0"
         id="stop248" /><stop
         style="stop-opacity:1;stop-color:#918f8f"
         offset="0.44453972"
         id="stop250" /><stop
         style="stop-opacity:1;stop-color:#918f8f"
         offset="0.507042"
         id="stop252" /><stop
         style="stop-opacity:1;stop-color:#a19fa0"
         offset="0.83012578"
         id="stop254" /><stop
         style="stop-opacity:1;stop-color:#a19fa0"
         offset="1"
         id="stop256" /></radialGradient><clipPath
       clipPathUnits="userSpaceOnUse"
       id="clipPath268"><path
         d="m 3029.76,1448.94 c -29.82,24.01 -62.4,38.17 -87.93,43.25 90.53,-5.73 167.98,-78.4 179.1,-173.13 l -18.48,-0.6 c -5.8,64.08 -42.68,106.32 -72.69,130.48 z m -118.72,-323.43 c -90.66,0 -164.4,73.75 -164.4,164.4 0,90.66 73.74,164.41 164.4,164.41 90.65,0 164.42,-73.75 164.42,-164.41 0,-90.65 -73.77,-164.4 -164.42,-164.4 z m 0,404.63 c -132.45,0 -240.21,-107.77 -240.21,-240.23 0,-132.46 107.76,-240.22 240.21,-240.22 132.47,0 240.21,107.76 240.21,240.22 0,132.46 -107.74,240.23 -240.21,240.23 z"
         id="path266" /></clipPath><radialGradient
       fx="0"
       fy="0"
       cx="0"
       cy="0"
       r="1"
       gradientUnits="userSpaceOnUse"
       gradientTransform="matrix(358.588,0,0,-358.588,2911.04,1289.91)"
       spreadMethod="pad"
       id="radialGradient280"><stop
         style="stop-opacity:1;stop-color:#7b7979"
         offset="0"
         id="stop270" /><stop
         style="stop-opacity:1;stop-color:#7b7979"
         offset="0.16987422"
         id="stop272" /><stop
         style="stop-opacity:1;stop-color:#231f20"
         offset="0.492958"
         id="stop274" /><stop
         style="stop-opacity:1;stop-color:#231f20"
         offset="0.55546028"
         id="stop276" /><stop
         style="stop-opacity:1;stop-color:#656263"
         offset="1"
         id="stop278" /></radialGradient><clipPath
       clipPathUnits="userSpaceOnUse"
       id="clipPath290"><path
         d="m 911.246,1049.69 c -132.453,0 -240.215,107.76 -240.215,240.22 0,132.46 107.762,240.23 240.215,240.23 132.484,0 240.224,-107.77 240.224,-240.23 0,-132.46 -107.74,-240.22 -240.224,-240.22 m 0,404.63 c -90.656,0 -164.406,-73.75 -164.406,-164.41 0,-90.65 73.75,-164.4 164.406,-164.4 90.664,0 164.424,73.75 164.424,164.4 0,90.66 -73.76,164.41 -164.424,164.41 m 30.789,37.87 c 25.528,-5.08 58.105,-19.24 87.935,-43.24 30.02,-24.17 66.89,-66.41 72.68,-130.49 l 18.5,0.6 c -11.13,94.73 -88.59,167.4 -179.115,173.13"
         id="path288" /></clipPath><radialGradient
       fx="0"
       fy="0"
       cx="0"
       cy="0"
       r="1"
       gradientUnits="userSpaceOnUse"
       gradientTransform="matrix(392.252,0,0,-392.252,911.25,1289.91)"
       spreadMethod="pad"
       id="radialGradient302"><stop
         style="stop-opacity:1;stop-color:#a19fa0"
         offset="0"
         id="stop292" /><stop
         style="stop-opacity:1;stop-color:#918f8f"
         offset="0.44453972"
         id="stop294" /><stop
         style="stop-opacity:1;stop-color:#918f8f"
         offset="0.507042"
         id="stop296" /><stop
         style="stop-opacity:1;stop-color:#a19fa0"
         offset="0.83012578"
         id="stop298" /><stop
         style="stop-opacity:1;stop-color:#a19fa0"
         offset="1"
         id="stop300" /></radialGradient><clipPath
       clipPathUnits="userSpaceOnUse"
       id="clipPath312"><path
         d="m 1029.97,1448.94 c -29.83,24.01 -62.407,38.17 -87.935,43.25 90.525,-5.73 167.985,-78.4 179.115,-173.13 l -18.5,-0.6 c -5.79,64.08 -42.66,106.32 -72.68,130.48 z M 911.246,1125.51 c -90.656,0 -164.406,73.75 -164.406,164.4 0,90.66 73.75,164.41 164.406,164.41 90.664,0 164.424,-73.75 164.424,-164.41 0,-90.65 -73.76,-164.4 -164.424,-164.4 z m 0,404.63 c -132.453,0 -240.215,-107.77 -240.215,-240.23 0,-132.46 107.762,-240.22 240.215,-240.22 132.484,0 240.224,107.76 240.224,240.22 0,132.46 -107.74,240.23 -240.224,240.23 z"
         id="path310" /></clipPath><radialGradient
       fx="0"
       fy="0"
       cx="0"
       cy="0"
       r="1"
       gradientUnits="userSpaceOnUse"
       gradientTransform="matrix(358.592,0,0,-358.592,911.25,1289.91)"
       spreadMethod="pad"
       id="radialGradient324"><stop
         style="stop-opacity:1;stop-color:#7b7979"
         offset="0"
         id="stop314" /><stop
         style="stop-opacity:1;stop-color:#7b7979"
         offset="0.16987422"
         id="stop316" /><stop
         style="stop-opacity:1;stop-color:#231f20"
         offset="0.492958"
         id="stop318" /><stop
         style="stop-opacity:1;stop-color:#231f20"
         offset="0.55546028"
         id="stop320" /><stop
         style="stop-opacity:1;stop-color:#656263"
         offset="1"
         id="stop322" /></radialGradient><clipPath
       clipPathUnits="userSpaceOnUse"
       id="clipPath334"><path
         d="m 912.172,1366.43 c -41.445,0 -75.164,-33.73 -75.164,-75.18 0,-41.45 33.719,-75.18 75.164,-75.18 41.457,0 75.176,33.73 75.176,75.18 0,41.45 -33.719,75.18 -75.176,75.18 z m 0,-161.55 c -47.617,0 -86.367,38.75 -86.367,86.37 0,47.63 38.75,86.38 86.367,86.38 47.629,0 86.379,-38.75 86.379,-86.38 0,-47.62 -38.75,-86.37 -86.379,-86.37 z"
         id="path332" /></clipPath><linearGradient
       x1="0"
       y1="0"
       x2="1"
       y2="0"
       gradientUnits="userSpaceOnUse"
       gradientTransform="matrix(-4.72e-5,-1080.17,-1080.17,4.72e-5,912.178,2068.37)"
       spreadMethod="pad"
       id="linearGradient342"><stop
         style="stop-opacity:1;stop-color:#ed1c24"
         offset="0"
         id="stop336" /><stop
         style="stop-opacity:1;stop-color:#ed1c24"
         offset="0.34460181"
         id="stop338" /><stop
         style="stop-opacity:1;stop-color:#861115"
         offset="1"
         id="stop340" /></linearGradient><clipPath
       clipPathUnits="userSpaceOnUse"
       id="clipPath352"><path
         d="m 911.449,1302.77 c -6.961,0 -12.617,-5.66 -12.617,-12.62 0,-6.96 5.656,-12.61 12.617,-12.61 6.953,0 12.617,5.65 12.617,12.61 0,6.96 -5.664,12.62 -12.617,12.62 z m 0,-30.82 c -10.039,0 -18.203,8.16 -18.203,18.2 0,10.03 8.164,18.21 18.203,18.21 10.039,0 18.203,-8.18 18.203,-18.21 0,-10.04 -8.164,-18.2 -18.203,-18.2 z"
         id="path350" /></clipPath><linearGradient
       x1="0"
       y1="0"
       x2="1"
       y2="0"
       gradientUnits="userSpaceOnUse"
       gradientTransform="matrix(-2.39e-5,-547.124,-547.124,2.39e-5,911.45,1683.78)"
       spreadMethod="pad"
       id="linearGradient360"><stop
         style="stop-opacity:1;stop-color:#ed1c24"
         offset="0"
         id="stop354" /><stop
         style="stop-opacity:1;stop-color:#ed1c24"
         offset="0.34460181"
         id="stop356" /><stop
         style="stop-opacity:1;stop-color:#861115"
         offset="1"
         id="stop358" /></linearGradient><clipPath
       clipPathUnits="userSpaceOnUse"
       id="clipPath370"><path
         d="m 863.746,1303.65 25.313,-21.95 -3.731,-33.31 28.711,17.3 30.516,-13.83 -7.578,32.63 22.597,24.74 -33.386,2.89 -16.563,29.14 -13.059,-30.87 z m 9.383,-74.27 5.402,48.22 -36.652,31.78 47.531,9.76 18.906,44.68 23.965,-42.19 48.34,-4.17 -32.715,-35.83 10.977,-47.25 -44.192,20.03 z"
         id="path368" /></clipPath><radialGradient
       fx="0"
       fy="0"
       cx="0"
       cy="0"
       r="1"
       gradientUnits="userSpaceOnUse"
       gradientTransform="matrix(94.62,0,0,-94.62,911.25,1296.6)"
       spreadMethod="pad"
       id="radialGradient382"><stop
         style="stop-opacity:1;stop-color:#7b7979"
         offset="0"
         id="stop372" /><stop
         style="stop-opacity:1;stop-color:#7b7979"
         offset="0.09865984"
         id="stop374" /><stop
         style="stop-opacity:1;stop-color:#231f20"
         offset="0.286301"
         id="stop376" /><stop
         style="stop-opacity:1;stop-color:#231f20"
         offset="0.37427757"
         id="stop378" /><stop
         style="stop-opacity:1;stop-color:#656263"
         offset="1"
         id="stop380" /></radialGradient></defs><sodipodi:namedview
     pagecolor="#ffffff"
     bordercolor="#666666"
     borderopacity="1"
     objecttolerance="10"
     gridtolerance="10"
     guidetolerance="10"
     inkscape:pageopacity="0"
     inkscape:pageshadow="2"
     inkscape:window-width="640"
     inkscape:window-height="480"
     id="namedview4" /><g
     id="g10"
     inkscape:groupmode="layer"
     inkscape:label="ink_ext_XXXXXX"
     transform="matrix(1.3333333,0,0,-1.3333333,0,273.09333)"><g
       id="g12"
       transform="scale(0.1)"><g
         id="g14"
         transform="scale(10)"><text
           transform="matrix(1,0,0,-1,0,40.1988)"
           style="font-variant:normal;font-weight:bold;font-size:61.0971px;font-family:Exo;-inkscape-font-specification:Exo-Bold;writing-mode:lr-tb;fill:#393536;fill-opacity:1;fill-rule:nonzero;stroke:none"
           id="text18"><tspan
             x="0 45.944305 92.622009 133.7402 180.84521"
             y="0"
             sodipodi:role="line"
             id="tspan16"></tspan></text></g><g
         id="g20"
         transform="scale(10)"><text
           transform="matrix(1,0,0,-1,202.229,40.1988)"
           style="font-style:italic;font-variant:normal;font-weight:bold;font-size:61.0971px;font-family:Exo;-inkscape-font-specification:Exo-BoldItalic;writing-mode:lr-tb;fill:#c81c22;fill-opacity:1;fill-rule:nonzero;stroke:none"
           id="text24"><tspan
             x="0 34.885704 81.808617 122.07131"
             y="0"
             sodipodi:role="line"
             id="tspan22"></tspan></text></g><g
         id="g26"
         transform="scale(10)"><text
           transform="matrix(1,0,0,-1,14.7891,7.11719)"
           style="font-style:italic;font-variant:normal;font-size:26.0681px;font-family:Exo;-inkscape-font-specification:Exo-Italic;writing-mode:lr-tb;fill:#444142;fill-opacity:1;fill-rule:nonzero;stroke:none"
           id="text30"><tspan
             x="0 15.09343 31.881287 37.746609 52.631493 59.148518 85.268753 91.134079 105.07891 119.02534 125.54237 141.10503 155.88564 162.40266 177.39096 194.77838 211.87848 227.78001 234.29704 245.87122 262.42441 278.2999 292.24518 298.1105 315.31543"
             y="0"
             sodipodi:role="line"
             id="tspan28"></tspan></text></g><g
         id="g32"><g
           id="g34"
           clip-path="url(#clipPath38)"><path
             d="m 2911.04,1365.09 c -41.46,0 -75.17,-33.73 -75.17,-75.18 0,-41.45 33.71,-75.18 75.17,-75.18 41.46,0 75.18,33.73 75.18,75.18 0,41.45 -33.72,75.18 -75.18,75.18 z m 0,-161.56 c -47.63,0 -86.38,38.75 -86.38,86.38 0,47.63 38.75,86.38 86.38,86.38 47.63,0 86.38,-38.75 86.38,-86.38 0,-47.63 -38.75,-86.38 -86.38,-86.38"
             style="fill:url(#linearGradient46);fill-opacity:1;fill-rule:nonzero;stroke:none"
             id="path48" /></g></g><g
         id="g50"><g
           id="g52"
           clip-path="url(#clipPath56)"><path
             d="m 2910.32,1301.43 c -6.97,0 -12.62,-5.67 -12.62,-12.62 0,-6.95 5.65,-12.62 12.62,-12.62 6.95,0 12.61,5.67 12.61,12.62 0,6.95 -5.66,12.62 -12.61,12.62 z m 0,-30.82 c -10.04,0 -18.21,8.16 -18.21,18.2 0,10.04 8.17,18.2 18.21,18.2 10.04,0 18.2,-8.16 18.2,-18.2 0,-10.04 -8.16,-18.2 -18.2,-18.2"
             style="fill:url(#linearGradient64);fill-opacity:1;fill-rule:nonzero;stroke:none"
             id="path66" /></g></g><g
         id="g68"><g
           id="g70"
           clip-path="url(#clipPath74)"><path
             d="m 2862.61,1302.31 25.31,-21.95 -3.73,-33.31 28.72,17.31 30.5,-13.85 -7.58,32.63 22.6,24.75 -33.38,2.89 -16.56,29.14 -13.07,-30.87 z m 9.38,-74.29 5.41,48.23 -36.66,31.79 47.54,9.75 18.9,44.69 23.97,-42.19 48.34,-4.18 -32.72,-35.82 10.98,-47.27 -44.2,20.04 -41.56,-25.04"
             style="fill:url(#radialGradient86);fill-opacity:1;fill-rule:nonzero;stroke:none"
             id="path88" /></g></g><g
         id="g90"><g
           id="g92"
           clip-path="url(#clipPath96)"><path
             d="m 819.488,1034.48 c -128.008,29.14 -223.566,143.54 -223.566,280.34 0,158.85 128.808,287.61 287.695,287.61 113.899,0 212.293,-66.15 258.923,-162.1 -48.67,77.27 -134.69,128.65 -232.79,128.65 -151.855,0 -274.961,-123.06 -274.961,-274.87 0,-120.18 77.199,-222.29 184.699,-259.63"
             style="fill:url(#linearGradient104);fill-opacity:1;fill-rule:nonzero;stroke:none"
             id="path106" /></g></g><path
         d="m 315.133,1688.74 c 0,0 -110.547,-38.12 -125.801,-179.16 -15.246,-141.05 0,285.9 0,285.9 0,0 11.445,-30.51 125.801,-106.74"
         style="fill:#831418;fill-opacity:1;fill-rule:nonzero;stroke:none"
         id="path108" /><g
         id="g110"><g
           id="g112"
           clip-path="url(#clipPath116)"><path
             d="m 239.918,1454.21 c 0,0 -66.289,-323.88 336.941,-306.88 0,0 -430.761,-121.45 -403.23,306.88 h 66.289"
             style="fill:url(#linearGradient124);fill-opacity:1;fill-rule:nonzero;stroke:none"
             id="path126" /></g></g><g
         id="g128"><g
           id="g130"
           clip-path="url(#clipPath134)"><g
             id="g136"
             clip-path="url(#clipPath140)"><path
               d="m 3313,1620 v 1 h -2 v 1 h -2 v 1 h -2 v 1 h -3 v 1 h -2 v 1 h -3 v 1 h -2 v 1 h -3 v 1 h -3 v 1 h -2 v 1 h -3 v 1 h -3 v 1 h -3 v 1 h -3 v 1 h -3 v 1 h -3 v 1 h -3 v 1 h -4 v 1 h -3 v 1 h -4 v 1 h -3 v 1 h -4 v 1 h -3 v 1 h -4 v 1 h -4 v 1 h -3 v 1 h -4 v 1 h -4 v 1 h -4 v 1 h -5 v 1 h -4 v 1 h -4 v 1 h -5 v 1 h -4 v 1 h -5 v 1 h -4 v 1 h -5 v 1 h -5 v 1 h -5 v 1 h -5 v 1 h -5 v 1 h -5 v 1 h -6 v 1 h -5 v 1 h -6 v 1 h -6 v 1 h -5 v 1 h -7 v 1 h -6 v 1 h -6 v 1 h -6 v 1 h -7 v 1 h -7 v 1 h -7 v 1 h -6 v 1 h -8 v 1 h -8 v 1 h -7 v 1 h -8 v 1 h -8 v 1 h -9 v 1 h -8 v 1 h -9 v 1 h -9 v 1 h -10 v 1 h -9 v 1 h -10 v 1 h -11 v 1 h -11 v 1 h -11 v 1 h -13 v 1 h -12 v 1 h -13 v 1 h -14 v 1 h -15 v 1 h -16 v 1 h -17 v 1 h -18 v 1 h -20 v 1 h -23 v 1 h -24 v 1 h -31 v 1 h -37 v 1 h -55 v 1 h -166 v -1 h -60 v -1 h -2 v 1 h -1 v 1 h -1 v 1 h -1 v 1 h -1 v 1 h -1 v 1 h -1 v 1 h -2 v 1 h -1 v 1 h -1 v 1 h -1 v 1 h -1 v 1 h -2 v 1 h -1 v 1 h -1 v 1 h -1 v 1 h -1 v 1 h -2 v 1 h -1 v 1 h -1 v 1 h -1 v 1 h -1 v 1 h -2 v 1 h -1 v 1 h -1 v 1 h -2 v 1 h -1 v 1 h -1 v 1 h -1 v 1 h -2 v 1 h -1 v 1 h -1 v 1 h -2 v 1 h -1 v 1 h -1 v 1 h -2 v 1 h -1 v 1 h -1 v 1 h -2 v 1 h -1 v 1 h -1 v 1 h -2 v 1 h -1 v 1 h -1 v 1 h -2 v 1 h -1 v 1 h -2 v 1 h -1 v 1 h -1 v 1 h -2 v 1 h -1 v 1 h -2 v 1 h -1 v 1 h -1 v 1 h -2 v 1 h -1 v 1 h -2 v 1 h -1 v 1 h -2 v 1 h -1 v 1 h -2 v 1 h -1 v 1 h -1 v 1 h -2 v 1 h -1 v 1 h -2 v 1 h -1 v 1 h -2 v 1 h -1 v 1 h -2 v 1 h -2 v 1 h -1 v 1 h -2 v 1 h -1 v 1 h -2 v 1 h -1 v 1 h -2 v 1 h -1 v 1 h -2 v 1 h -2 v 1 h -1 v 1 h -2 v 1 h -1 v 1 h -2 v 1 h -1 v 1 h -2 v 1 h -2 v 1 h -1 v 1 h -2 v 1 h -2 v 1 h -1 v 1 h -2 v 1 h -2 v 1 h -1 v 1 h -2 v 1 h -2 v 1 h -1 v 1 h -2 v 1 h -2 v 1 h -1 v 1 h -2 v 1 h -2 v 1 h -1 v 1 h -2 v 1 h -2 v 1 h -2 v 1 h -1 v 1 h -2 v 1 h -2 v 1 h -2 v 1 h -2 v 1 h -1 v 1 h -2 v 1 h -2 v 1 h -2 v 1 h -1 v 1 h -2 v 1 h -2 v 1 h -2 v 1 h -2 v 1 h -2 v 1 h -2 v 1 h -1 v 1 h -2 v 1 h -2 v 1 h -2 v 1 h -2 v 1 h -2 v 1 h -2 v 1 h -2 v 1 h -2 v 1 h -2 v 1 h -2 v 1 h -2 v 1 h -2 v 1 h -1 v 1 h -2 v 1 h -2 v 1 h -2 v 1 h -2 v 1 h -2 v 1 h -2 v 1 h -3 v 1 h -2 v 1 h -2 v 1 h -2 v 1 h -2 v 1 h -2 v 1 h -2 v 1 h -2 v 1 h -2 v 1 h -2 v 1 h -2 v 1 h -3 v 1 h -2 v 1 h -2 v 1 h -2 v 1 h -2 v 1 h -3 v 1 h -2 v 1 h -2 v 1 h -2 v 1 h -2 v 1 h -3 v 1 h -2 v 1 h -2 v 1 h -3 v 1 h -2 v 1 h -2 v 1 h -3 v 1 h -2 v 1 h -2 v 1 h -2 v 1 h -3 v 1 h -2 v 1 h -3 v 1 h -2 v 1 h -3 v 1 h -2 v 1 h -3 v 1 h -2 v 1 h -2 v 1 h -3 v 1 h -2 v 1 h -3 v 1 h -2 v 1 h -3 v 1 h -3 v 1 h -2 v 1 h -3 v 1 h -3 v 1 h -2 v 1 h -3 v 1 h -3 v 1 h -2 v 1 h -3 v 1 h -3 v 1 h -2 v 1 h -3 v 1 h -3 v 1 h -3 v 1 h -3 v 1 h -3 v 1 h -2 v 1 h -3 v 1 h -3 v 1 h -3 v 1 h -3 v 1 h -3 v 1 h -3 v 1 h -3 v 1 h -3 v 1 h -3 v 1 h -3 v 1 h -3 v 1 h -4 v 1 h -3 v 1 h -3 v 1 h -3 v 1 h -4 v 1 h -3 v 1 h -3 v 1 h -4 v 1 h -3 v 1 h -3 v 1 h -4 v 1 h -3 v 1 h -4 v 1 h -3 v 1 h -4 v 1 h -4 v 1 h -3 v 1 h -4 v 1 h -4 v 1 h -3 v 1 h -4 v 1 h -4 v 1 h -4 v 1 h -4 v 1 h -4 v 1 h -4 v 1 h -4 v 1 h -4 v 1 h -4 v 1 h -5 v 1 h -4 v 1 h -5 v 1 h -4 v 1 h -5 v 1 h -4 v 1 h -5 v 1 h -5 v 1 h -4 v 1 h -6 v 1 h -5 v 1 h -5 v 1 h -5 v 1 h -5 v 1 h -6 v 1 h -5 v 1 h -6 v 1 h -6 v 1 h -6 v 1 h -6 v 1 h -6 v 1 h -6 v 1 h -7 v 1 h -7 v 1 h -7 v 1 h -7 v 1 h -8 v 1 h -10 v 1 h -20 v 1 h -42 v 1 h -35 v -1 h -47 v -1 h -27 v -1 h -20 v -1 h -19 v -1 h -15 v -1 h -15 v -1 h -13 v -1 h -13 v -1 h -11 v -1 h -11 v -1 h -11 v -1 h -10 v -1 h -10 v -1 h -10 v -1 h -9 v -1 h -9 v -1 h -9 v -1 h -8 v -1 h -9 v -1 h -8 v -1 h -7 v -1 h -8 v -1 h -8 v -1 h -7 v -1 h -7 v -1 h -7 v -1 h -7 v -1 h -7 v -1 h -7 v -1 h -7 v -1 h -6 v -1 h -7 v -1 h -6 v -1 h -6 v -1 h -7 v -1 h -6 v -1 h -6 v -1 h -6 v -1 h -5 v -1 h -6 v -1 h -6 v -1 h -6 v -1 h -6 v -1 h -5 v -1 h -5 v -1 h -6 v -1 h -5 v -1 h -5 v -1 h -6 v -1 h -5 v -1 h -5 v -1 h -5 v -1 h -5 v -1 h -5 v -1 h -5 v -1 h -5 v -1 h -5 v -1 h -5 v -1 h -5 v -1 h -5 v -1 h -4 v -1 h -5 v -1 h -5 v -1 h -4 v -1 h -5 v -1 h -4 v -1 h -5 v -1 h -5 v -1 h -4 v -1 h -5 v -1 h -4 v -1 h -4 v -1 h -4 v -1 h -5 v -1 h -4 v -1 h -4 v -1 h -4 v -1 h -5 v -1 h -4 v -1 h -4 v -1 h -4 v -1 h -4 v -1 h -4 v -1 h -4 v -1 h -4 v -1 h -4 v -1 h -4 v -1 h -4 v -1 h -4 v -1 h -4 v -1 h -4 v -1 h -4 v -1 h -4 v -1 h -4 v -1 h -3 v -1 h -4 v -1 h -4 v -1 h -4 v -1 h -3 v -1 h -4 v -1 h -4 v -1 h -4 v -1 h -3 v -1 h -4 v -1 h -4 v -1 h -3 v -1 h -4 v -1 h -3 v -1 h -4 v -1 h -3 v -1 h -4 v -1 h -3 v -1 h -4 v -1 h -3 v -1 h -4 v -1 h -3 v -1 h -4 v -1 h -3 v -1 h -4 v -1 h -3 v -1 h -3 v -1 h -4 v -1 h -3 v -1 h -3 v -1 h -3 v -1 h -4 v -1 h -3 v -1 h -3 v -1 h -4 v -1 h -3 v -1 h -3 v -1 h -3 v -1 h -4 v -1 h -3 v -1 h -3 v -1 h -3 v -1 h -4 v -1 h -3 v -1 h -3 v -1 h -3 v -1 h -3 v -1 h -3 v -1 h -3 v -1 h -3 v -1 h -4 v -1 h -3 v -1 h -3 v -1 h -3 v -1 h -3 v -1 h -3 v -1 h -3 v -1 h -3 v -1 h -2 v -1 h -3 v -1 h -3 v -1 h -3 v -1 h -3 v -1 h -3 v -1 h -3 v -1 h -3 v -1 h -3 v -1 h -3 v -1 h -3 v -1 h -3 v -1 h -3 v -1 h -3 v -1 h -3 v -1 h -3 v -1 h -3 v -1 h -3 v -1 h -3 v -1 h -3 v -1 h -4 v -1 h -3 v -1 h -3 v -1 h -3 v -1 h -3 v -1 h -4 v -1 h -3 v -1 h -3 v -1 h -3 v -1 h -3 v -1 h -4 v -1 h -3 v -1 h -3 v -1 h -4 v -1 h -3 v -1 h -3 v -1 h -3 v -1 h -4 v -1 h -3 v -1 h -4 v -1 h -3 v -1 h -3 v -1 h -4 v -1 h -3 v -1 h -4 v -1 h -3 v -1 h -4 v -1 h -3 v -1 h -4 v -1 h -3 v -1 h -4 v -1 h -3 v -1 h -4 v -1 h -3 v -1 h -4 v -1 h -3 v -1 h -4 v -1 h -3 v -1 h -4 v -1 h -4 v -1 h -3 v -1 h -4 v -1 h -4 v -1 h -3 v -1 h -4 v -1 h -4 v -1 h -3 v -1 h -4 v -1 h -4 v -1 h -4 v -1 h -3 v -1 h -4 v -1 h -4 v -1 h -4 v -1 h -3 v -1 h -4 v -1 h -4 v -1 h -4 v -1 h -4 v -1 h -4 v -1 h -4 v -1 h -4 v -1 h -4 v -1 h -4 v -1 h -4 v -1 h -4 v -1 h -4 v -1 h -4 v -1 h -4 v -1 h -4 v -1 h -4 v -1 h -4 v -1 h -4 v -1 h -4 v -1 h -4 v -1 h -5 v -1 h -4 v -1 h -4 v -1 h -4 v -1 h -5 v -1 h -4 v -1 h -4 v -1 h -5 v -1 h -4 v -1 h -4 v -1 h -4 v -1 h -5 v -1 h -4 v -1 h -5 v -1 h -4 v -1 h -5 v -1 h -4 v -1 h -4 v -1 h -5 v -1 h -4 v -1 h -5 v -1 h -5 v -1 h -2 v 1 h -1 v 1 h -2 v 1 h -1 v 1 h -2 v 1 h -1 v 1 h -2 v 1 h -1 v 1 h -2 v 1 h -1 v 1 h -2 v 1 h -1 v 1 h -2 v 1 h -1 v 1 h -1 v 1 h -2 v 1 h -1 v 1 h -2 v 1 h -1 v 1 h -2 v 1 h -1 v 1 h -1 v 1 h -2 v 1 h -1 v 1 h -1 v 1 h -2 v 1 h -1 v 1 h -1 v 1 h -2 v 1 h -1 v 1 h -2 v 1 h -1 v 1 h -1 v 1 h -2 v 1 h -1 v 1 h -1 v 1 h -1 v 1 h -2 v 1 h -1 v 1 h -1 v 1 h -2 v 1 h -1 v 1 h -1 v 1 h -1 v 1 h -2 v 1 h -1 v 1 h -1 v 1 h -2 v 1 h -1 v 1 h -1 v 1 h -1 v 1 h -1 v 1 h -2 v 1 h -1 v 1 h -1 v 1 h -1 v 1 h -2 v 1 h -1 v 1 h -1 v 1 h -1 v 1 h -1 v 1 h -1 v 1 h -2 v 1 h -1 v 1 h -1 v 1 h -1 v 1 h -1 v 1 h -1 v 1 h -1 v 1 h -2 v 1 h -1 v 1 h -1 v 1 h -1 v 1 h -1 v 1 h -1 v 1 h -1 v 1 h -1 v 1 h -1 v 1 h -1 v 1 h -1 v 1 h -1 v 1 h -2 v 1 h -1 v 1 h -1 v 1 h -1 v 1 h -1 v 2 h -1 v 1 h -1 v 1 h -1 v 1 h -1 v 1 h -1 v 1 h -1 v 1 h -1 v 1 h -1 v 1 h -1 v 1 h -1 v 1 h -1 v 1 h -1 v 1 h -1 v 2 h -1 v 1 h -1 v 1 h -1 v 1 h -1 v 1 h -1 v 1 h -1 v 2 h -1 v 1 h -1 v 1 h -1 v 2 h -1 v 1 h -1 v 1 h -1 v 2 h -1 v 1 h -1 v 2 h -1 v 2 h -1 v 1 h -1 v 2 h -1 v 2 h -1 v 2 h -1 v 2 h -1 v 2 h -1 v 2 h -1 v 5 h 1 v -1 h 3 v -1 h 3 v -1 h 4 v -1 h 4 v -1 h 5 v -1 h 4 v -1 h 5 v -1 h 6 v -1 h 6 v -1 h 7 v -1 h 8 v -1 h 8 v -1 h 10 v -1 h 13 v -1 h 17 v -1 h 70 v 1 h 18 v 1 h 17 v 1 h 11 v 1 h 11 v 1 h 11 v 1 h 10 v 1 h 8 v 1 h 8 v 1 h 8 v 1 h 8 v 1 h 8 v 1 h 6 v 1 h 6 v 1 h 7 v 1 h 6 v 1 h 6 v 1 h 6 v 1 h 7 v 1 h 6 v 1 h 5 v 1 h 5 v 1 h 5 v 1 h 5 v 1 h 5 v 1 h 6 v 1 h 5 v 1 h 5 v 1 h 5 v 1 h 5 v 1 h 5 v 1 h 4 v 1 h 5 v 1 h 4 v 1 h 5 v 1 h 4 v 1 h 5 v 1 h 4 v 1 h 5 v 1 h 4 v 1 h 4 v 1 h 4 v 1 h 4 v 1 h 3 v 1 h 3 v 1 h 3 v 1 h 2 v 1 h 3 v 1 h 3 v 1 h 3 v 1 h 3 v 1 h 3 v 1 h 3 v 1 h 3 v 1 h 3 v 1 h 3 v 1 h 3 v 1 h 3 v 1 h 3 v 1 h 3 v 1 h 3 v 1 h 3 v 1 h 3 v 1 h 3 v 1 h 4 v 1 h 3 v 1 h 3 v 1 h 3 v 1 h 3 v 1 h 3 v 1 h 4 v 1 h 3 v 1 h 3 v 1 h 3 v 1 h 3 v 1 h 4 v 1 h 3 v 1 h 3 v 1 h 3 v 1 h 4 v 1 h 3 v 1 h 3 v 1 h 4 v 1 h 3 v 1 h 3 v 1 h 4 v 1 h 3 v 1 h 4 v 1 h 3 v 1 h 3 v 1 h 4 v 1 h 3 v 1 h 4 v 1 h 3 v 1 h 4 v 1 h 3 v 1 h 4 v 1 h 3 v 1 h 4 v 1 h 3 v 1 h 4 v 1 h 3 v 1 h 4 v 1 h 4 v 1 h 3 v 1 h 4 v 1 h 4 v 1 h 3 v 1 h 4 v 1 h 4 v 1 h 3 v 1 h 4 v 1 h 4 v 1 h 4 v 1 h 3 v 1 h 4 v 1 h 4 v 1 h 4 v 1 h 4 v 1 h 3 v 1 h 4 v 1 h 4 v 1 h 4 v 1 h 4 v 1 h 4 v 1 h 4 v 1 h 4 v 1 h 4 v 1 h 4 v 1 h 4 v 1 h 4 v 1 h 4 v 1 h 4 v 1 h 5 v 1 h 4 v 1 h 4 v 1 h 4 v 1 h 4 v 1 h 4 v 1 h 5 v 1 h 4 v 1 h 4 v 1 h 5 v 1 h 4 v 1 h 4 v 1 h 5 v 1 h 4 v 1 h 5 v 1 h 4 v 1 h 5 v 1 h 4 v 1 h 5 v 1 h 4 v 1 h 5 v 1 h 5 v 1 h 4 v 1 h 5 v 1 h 5 v 1 h 5 v 1 h 4 v 1 h 5 v 1 h 5 v 1 h 5 v 1 h 5 v 1 h 5 v 1 h 5 v 1 h 5 v 1 h 5 v 1 h 5 v 1 h 5 v 1 h 6 v 1 h 5 v 1 h 6 v 1 h 5 v 1 h 6 v 1 h 5 v 1 h 6 v 1 h 5 v 1 h 6 v 1 h 6 v 1 h 6 v 1 h 6 v 1 h 6 v 1 h 6 v 1 h 6 v 1 h 6 v 1 h 6 v 1 h 6 v 1 h 7 v 1 h 7 v 1 h 6 v 1 h 7 v 1 h 7 v 1 h 6 v 1 h 7 v 1 h 8 v 1 h 7 v 1 h 8 v 1 h 8 v 1 h 7 v 1 h 8 v 1 h 8 v 1 h 9 v 1 h 9 v 1 h 9 v 1 h 9 v 1 h 9 v 1 h 10 v 1 h 11 v 1 h 11 v 1 h 11 v 1 h 12 v 1 h 13 v 1 h 15 v 1 h 15 v 1 h 15 v 1 h 22 v 1 h 24 v 1 h 131 v -1 h 23 v -1 h 21 v -1 h 13 v -1 h 13 v -1 h 13 v -1 h 12 v -1 h 9 v -1 h 9 v -1 h 9 v -1 h 8 v -1 h 9 v -1 h 9 v -1 h 6 v -1 h 7 v -1 h 6 v -1 h 7 v -1 h 6 v -1 h 7 v -1 h 6 v -1 h 6 v -1 h 6 v -1 h 5 v -1 h 5 v -1 h 5 v -1 h 6 v -1 h 5 v -1 h 5 v -1 h 5 v -1 h 4 v -1 h 5 v -1 h 4 v -1 h 5 v -1 h 5 v -1 h 4 v -1 h 4 v -1 h 5 v -1 h 4 v -1 h 4 v -1 h 4 v -1 h 4 v -1 h 4 v -1 h 4 v -1 h 4 v -1 h 4 v -1 h 4 v -1 h 3 v -1 h 4 v -1 h 4 v -1 h 4 v -1 h 3 v -1 h 4 v -1 h 4 v -1 h 3 v -1 h 4 v -1 h 3 v -1 h 4 v -1 h 3 v -1 h 4 v -1 h 3 v -1 h 3 v -1 h 4 v -1 h 3 v -1 h 4 v -1 h 3 v -1 h 3 v -1 h 3 v -1 h 4 v -1 h 3 v -1 h 3 v -1 h 3 v -1 h 3 v -1 h 4 v -1 h 3 v -1 h 3 v -1 h 3 v -1 h 3 v -1 h 3 v -1 h 3 v -1 h 3 v -1 h 3 v -1 h 3 v -1 h 3 v -1 h 3 v -1 h 3 v -1 h 3 v -1 h 3 v -1 h 2 v -1 h 3 v -1 h 3 v -1 h 3 v -1 h 3 v -1 h 3 v -1 h 2 v -1 h 3 v -1 h 3 v -1 h 3 v -1 h 2 v -1 h 3 v -1 h 3 v -1 h 2 v -1 h 3 v -1 h 3 v -1 h 2 v -1 h 3 v -1 h 3 v -1 h 2 v -1 h 3 v -1 h 2 v -1 h 3 v -1 h 3 v -1 h 2 v -1 h 3 v -1 h 2 v -1 h 3 v -1 h 2 v -1 h 3 v -1 h 2 v -1 h 2 v -1 h 3 v -1 h 2 v -1 h 3 v -1 h 2 v -1 h 3 v -1 h 2 v -1 h 2 v -1 h 3 v -1 h 2 v -1 h 2 v -1 h 3 v -1 h 2 v -1 h 2 v -1 h 3 v -1 h 2 v -1 h 2 v -1 h 2 v -1 h 3 v -1 h 2 v -1 h 2 v -1 h 2 v -1 h 2 v -1 h 3 v -1 h 2 v -1 h 2 v -1 h 2 v -1 h 2 v -1 h 2 v -1 h 3 v -1 h 2 v -1 h 2 v -1 h 2 v -1 h 2 v -1 h 2 v -1 h 2 v -1 h 2 v -1 h 2 v -1 h 2 v -1 h 2 v -1 h 2 v -1 h 2 v -1 h 2 v -1 h 2 v -1 h 2 v -1 h 2 v -1 h 2 v -1 h 2 v -1 h 2 v -1 h 2 v -1 h 2 v -1 h 2 v -1 h 2 v -1 h 2 v -1 h 2 v -1 h 2 v -1 h 1 v -1 h 2 v -1 h 2 v -1 h 2 v -1 h 2 v -1 h 2 v -1 h 1 v -1 h 2 v -1 h 2 v -1 h 2 v -1 h 2 v -1 h 2 v -1 h 1 v -1 h 2 v -1 h 2 v -1 h 1 v -1 h 2 v -1 h 2 v -1 h 2 v -1 h 1 v -1 h 2 v -1 h 2 v -1 h 2 v -1 h 1 v -1 h 2 v -1 h 2 v -1 h 1 v -1 h 2 v -1 h 1 v -1 h 2 v -1 h 2 v -1 h 1 v -1 h 2 v -1 h 2 v -1 h 1 v -1 h 2 v -1 h 1 v -1 h 2 v -1 h 2 v -1 h 1 v -1 h 2 v -1 h 1 v -1 h 2 v -1 h 1 v -1 h 2 v -1 h 1 v -1 h 2 v -1 h 1 v -1 h 2 v -1 h 1 v -1 h 2 v -1 h 1 v -1 h 2 v -1 h 1 v -1 h 2 v -1 h 1 v -1 h 1 v -1 h 2 v -1 h 1 v -1 h 2 v -1 h 1 v -1 h 2 v -1 h 1 v -1 h 2 v -1 h 1 v -1 h 1 v -1 h 2 v -1 h 1 v -1 h 1 v -1 h 2 v -1 h 1 v -1 h 1 v -1 h 2 v -1 h 1 v -1 h 1 v -1 h 2 v -1 h 1 v -1 h 1 v -1 h 71 v -1 h 34 v -1 h 25 v -1 h 21 v -1 h 19 v -1 h 16 v -1 h 15 v -1 h 14 v -1 h 14 v -1 h 12 v -1 h 12 v -1 h 11 v -1 h 10 v -1 h 11 v -1 h 10 v -1 h 9 v -1 h 9 v -1 h 10 v -1 h 8 v -1 h 8 v -1 h 8 v -1 h 9 v -1 h 7 v -1 h 8 v -1 h 7 v -1 h 7 v -1 h 8 v -1 h 6 v -1 h 7 v -1 h 7 v -1 h 6 v -1 h 7 v -1 h 6 v -1 h 6 v -1 h 6 v -1 h 6 v -1 h 6 v -1 h 6 v -1 h 5 v -1 h 5 v -1 h 6 v -1 h 5 v -1 h 5 v -1 h 6 v -1 h 5 v -1 h 5 v -1 h 5 v -1 h 4 v -1 h 5 v -1 h 5 v -1 h 5 v -1 h 5 v -1 h 4 v -1 h 5 v -1 h 4 v -1 h 4 v -1 h 5 v -1 h 4 v -1 h 4 v -1 h 5 v -1 h 4 v -1 h 4 v -1 h 4 v -1 h 3 v -1 h 4 v -1 h 4 v -1 h 4 v -1 h 4 v -1 h 4 v -1 h 4 v -1 h 3 v -1 h 4 v -1 h 3 v -1 h 4 v -1 h 3 v -1 h 4 v -1 h 3 v -1 h 4 v -1 h 4 v -1 h 3 v -1 h 3 v -1 h 3 v -1 h 3 v -1 h 4 v -1 h 3 v -1 h 3 v -1 h 3 v -1 h 3 v -1 h 4 v -1 h 3 v -1 h 3 v -1 h 3 v -1 h 2 v -1 h 3 v -1 h 3 v -1 h 3 v -1 h 3 v -1 h 3 v -1 h 3 v -1 h 2 v -1 h 3 v -1 h 3 v -1 h 3 v -1 h 2 v -1 h 3 v -1 h 2 v -1 h 3 v -1 h 3 v -1 h 2 v -1 h 3 v -1 h 2 v -1 h 3 v -1 h 2 v -1 h 3 v -1 h 2 v -1 h 3 v -1 h 2 v -1 h 2 v -1 h 3 v -1 h 2 v -1 h 2 v -1 h 3 v -1 h 2 v -1 h 2 v -1 h 3 v -1 h 2 v -1 h 2 v -1 h 2 v -1 h 3 v -1 h 2 v -1 h 2 v -1 h 2 v -1 h 2 v -1 h 2 v -1 h 2 v -1 h 2 v -1 h 2 v -1 h 2 v -1 h 2 v -1 h 2 v -1 h 2 v -1 h 2 v -1 h 2 v -1 h 2 v -1 h 2 v -1 h 2 v -1 h 2 v -1 h 1 v -1 h 2 v -1 h 2 v -1 h 2 v -1 h 2 v -1 h 2 v -1 h 1 v -1 h 2 v -1 h 2 v -1 h 2 v -1 h 2 v -1 h 2 v -1 h 1 v -1 h 2 v -1 h 1 v -1 h 2 v -1 h 2 v -1 h 1 v -1 h 2 v -1 h 2 v -1 h 1 v -1 h 2 v -1 h 2 v -1 h 1 v -1 h 2 v -1 h 1 v -1 h 2 v -1 h 1 v -1 h 2 v -1"
               style="fill:url(#linearGradient148);fill-opacity:1;fill-rule:nonzero;stroke:none"
               id="path150" /></g></g></g><g
         id="g152"><g
           id="g154"
           clip-path="url(#clipPath158)"><path
             d="m 3433.35,1454.9 c 0,0 -30.48,72.43 -221.09,80.05 0,0 -5.57,22.19 -61.01,76.25 0,0 190.62,41.93 282.1,-156.3"
             style="fill:url(#linearGradient164);fill-opacity:1;fill-rule:nonzero;stroke:none"
             id="path166" /></g></g><g
         id="g168"><g
           id="g170"
           clip-path="url(#clipPath174)"><path
             d="m 1653.15,1684.93 h 655.66 c 0,0 -282.08,240.16 -543.2,228.72 0,0 287.8,-57.18 364.05,-175.35 l -476.51,-53.37"
             style="fill:url(#linearGradient182);fill-opacity:1;fill-rule:nonzero;stroke:none"
             id="path184" /></g></g><g
         id="g186"><g
           id="g188"
           clip-path="url(#clipPath192)"><path
             d="m 1569.28,1684.93 v 198.22 c 0,0 -373.57,15.24 -613.729,-87.67 0,0 182.979,141.05 644.229,137.23 l -30.5,-247.78"
             style="fill:url(#linearGradient200);fill-opacity:1;fill-rule:nonzero;stroke:none"
             id="path202" /></g></g><g
         id="g204"><g
           id="g206"
           clip-path="url(#clipPath210)"><path
             d="m 3433.35,1417.91 c 0,0 -213.02,-203.28 57.62,-286.48 0,0 -175.34,-0.67 -224.9,0 0,0 -8.07,267.42 167.28,286.48"
             style="fill:url(#linearGradient218);fill-opacity:1;fill-rule:nonzero;stroke:none"
             id="path220" /></g></g><g
         id="g222"><g
           id="g224"
           clip-path="url(#clipPath228)"><path
             d="m 2819.28,1034.48 c -64.72,14.74 -121.12,51.29 -161.08,101.49 -127.94,-54.1 -265.94,-75.13 -403.34,-75.13 -480.69,0 -953.06,257.62 -953.06,257.62 228.62,-83.53 427.6,-112.32 593.41,-112.3 367.7,0.02 571.91,141.61 571.91,141.61 -207,-66.12 -387.72,-92.19 -544.14,-92.19 -584.68,0 -828.91,364.55 -828.91,364.55 184.56,-82.37 349.29,-108.81 502.03,-108.81 136.97,0 264.3,21.27 387.59,42.53 123.3,21.27 242.55,42.53 363.42,42.53 110.94,0 223.25,-17.92 341.24,-70.2 55.97,51.64 125.62,76.22 194.58,76.22 104.95,0 208.3,-56.93 259.4,-162.07 -48.66,77.27 -134.7,128.65 -232.78,128.65 -202.82,0 -334.83,-211.73 -248.27,-393.02 31.45,-65.89 88.34,-117.29 158,-141.48"
             style="fill:url(#linearGradient236);fill-opacity:1;fill-rule:nonzero;stroke:none"
             id="path238" /></g></g><g
         id="g240"><g
           id="g242"
           clip-path="url(#clipPath246)"><path
             d="m 2911.04,1049.69 c -132.45,0 -240.21,107.76 -240.21,240.22 0,132.46 107.76,240.23 240.21,240.23 132.47,0 240.21,-107.77 240.21,-240.23 0,-132.46 -107.74,-240.22 -240.21,-240.22 m 0,404.63 c -90.66,0 -164.4,-73.75 -164.4,-164.41 0,-90.65 73.74,-164.4 164.4,-164.4 90.65,0 164.42,73.75 164.42,164.4 0,90.66 -73.77,164.41 -164.42,164.41 m 30.79,37.87 c 25.53,-5.08 58.11,-19.24 87.93,-43.24 30.01,-24.17 66.88,-66.41 72.69,-130.49 l 18.48,0.6 c -11.12,94.73 -88.57,167.4 -179.1,173.13"
             style="fill:url(#radialGradient258);fill-opacity:1;fill-rule:nonzero;stroke:none"
             id="path260" /></g></g><g
         id="g262"><g
           id="g264"
           clip-path="url(#clipPath268)"><path
             d="m 3029.76,1448.94 c -29.82,24.01 -62.4,38.17 -87.93,43.25 90.53,-5.73 167.98,-78.4 179.1,-173.13 l -18.48,-0.6 c -5.8,64.08 -42.68,106.32 -72.69,130.48 z m -118.72,-323.43 c -90.66,0 -164.4,73.75 -164.4,164.4 0,90.66 73.74,164.41 164.4,164.41 90.65,0 164.42,-73.75 164.42,-164.41 0,-90.65 -73.77,-164.4 -164.42,-164.4 z m 0,404.63 c -132.45,0 -240.21,-107.77 -240.21,-240.23 0,-132.46 107.76,-240.22 240.21,-240.22 132.47,0 240.21,107.76 240.21,240.22 0,132.46 -107.74,240.23 -240.21,240.23"
             style="fill:url(#radialGradient280);fill-opacity:1;fill-rule:nonzero;stroke:none"
             id="path282" /></g></g><g
         id="g284"><g
           id="g286"
           clip-path="url(#clipPath290)"><path
             d="m 911.246,1049.69 c -132.453,0 -240.215,107.76 -240.215,240.22 0,132.46 107.762,240.23 240.215,240.23 132.484,0 240.224,-107.77 240.224,-240.23 0,-132.46 -107.74,-240.22 -240.224,-240.22 m 0,404.63 c -90.656,0 -164.406,-73.75 -164.406,-164.41 0,-90.65 73.75,-164.4 164.406,-164.4 90.664,0 164.424,73.75 164.424,164.4 0,90.66 -73.76,164.41 -164.424,164.41 m 30.789,37.87 c 25.528,-5.08 58.105,-19.24 87.935,-43.24 30.02,-24.17 66.89,-66.41 72.68,-130.49 l 18.5,0.6 c -11.13,94.73 -88.59,167.4 -179.115,173.13"
             style="fill:url(#radialGradient302);fill-opacity:1;fill-rule:nonzero;stroke:none"
             id="path304" /></g></g><g
         id="g306"><g
           id="g308"
           clip-path="url(#clipPath312)"><path
             d="m 1029.97,1448.94 c -29.83,24.01 -62.407,38.17 -87.935,43.25 90.525,-5.73 167.985,-78.4 179.115,-173.13 l -18.5,-0.6 c -5.79,64.08 -42.66,106.32 -72.68,130.48 z M 911.246,1125.51 c -90.656,0 -164.406,73.75 -164.406,164.4 0,90.66 73.75,164.41 164.406,164.41 90.664,0 164.424,-73.75 164.424,-164.41 0,-90.65 -73.76,-164.4 -164.424,-164.4 z m 0,404.63 c -132.453,0 -240.215,-107.77 -240.215,-240.23 0,-132.46 107.762,-240.22 240.215,-240.22 132.484,0 240.224,107.76 240.224,240.22 0,132.46 -107.74,240.23 -240.224,240.23"
             style="fill:url(#radialGradient324);fill-opacity:1;fill-rule:nonzero;stroke:none"
             id="path326" /></g></g><g
         id="g328"><g
           id="g330"
           clip-path="url(#clipPath334)"><path
             d="m 912.172,1366.43 c -41.445,0 -75.164,-33.73 -75.164,-75.18 0,-41.45 33.719,-75.18 75.164,-75.18 41.457,0 75.176,33.73 75.176,75.18 0,41.45 -33.719,75.18 -75.176,75.18 z m 0,-161.55 c -47.617,0 -86.367,38.75 -86.367,86.37 0,47.63 38.75,86.38 86.367,86.38 47.629,0 86.379,-38.75 86.379,-86.38 0,-47.62 -38.75,-86.37 -86.379,-86.37"
             style="fill:url(#linearGradient342);fill-opacity:1;fill-rule:nonzero;stroke:none"
             id="path344" /></g></g><g
         id="g346"><g
           id="g348"
           clip-path="url(#clipPath352)"><path
             d="m 911.449,1302.77 c -6.961,0 -12.617,-5.66 -12.617,-12.62 0,-6.96 5.656,-12.61 12.617,-12.61 6.953,0 12.617,5.65 12.617,12.61 0,6.96 -5.664,12.62 -12.617,12.62 z m 0,-30.82 c -10.039,0 -18.203,8.16 -18.203,18.2 0,10.03 8.164,18.21 18.203,18.21 10.039,0 18.203,-8.18 18.203,-18.21 0,-10.04 -8.164,-18.2 -18.203,-18.2"
             style="fill:url(#linearGradient360);fill-opacity:1;fill-rule:nonzero;stroke:none"
             id="path362" /></g></g><g
         id="g364"><g
           id="g366"
           clip-path="url(#clipPath370)"><path
             d="m 863.746,1303.65 25.313,-21.95 -3.731,-33.31 28.711,17.3 30.516,-13.83 -7.578,32.63 22.597,24.74 -33.386,2.89 -16.563,29.14 -13.059,-30.87 z m 9.383,-74.27 5.402,48.22 -36.652,31.78 47.531,9.76 18.906,44.68 23.965,-42.19 48.34,-4.17 -32.715,-35.83 10.977,-47.25 -44.192,20.03 -41.562,-25.03"
             style="fill:url(#radialGradient382);fill-opacity:1;fill-rule:nonzero;stroke:none"
             id="path384" /></g></g></g></g></svg>
